<mxfile host="app.diagrams.net" modified="2020-03-20T00:00:27.490Z" agent="Mozilla/5.0 (Windows NT 10.0; Win64; x64) AppleWebKit/537.36 (KHTML, like Gecko) Chrome/80.0.3987.132 Safari/537.36" etag="2KYUEF39ug9kXQ5QoF8M" version="12.8.8" type="github">
  <diagram id="s-fJWoQtj2VFVK5msN_l" name="Page-1">
    <mxGraphModel dx="4857" dy="3619" grid="1" gridSize="10" guides="1" tooltips="1" connect="1" arrows="1" fold="1" page="1" pageScale="1" pageWidth="827" pageHeight="1169" math="0" shadow="0">
      <root>
        <mxCell id="0" />
        <mxCell id="1" parent="0" />
        <mxCell id="UM5Vl2hP91lMK8gzKFPu-1" style="edgeStyle=orthogonalEdgeStyle;curved=1;comic=0;orthogonalLoop=1;jettySize=auto;html=1;exitX=0.5;exitY=1;exitDx=0;exitDy=0;shadow=0;startArrow=classic;startFill=1;endArrow=none;endFill=0;dashed=1;" edge="1" parent="1" source="UM5Vl2hP91lMK8gzKFPu-5" target="UM5Vl2hP91lMK8gzKFPu-71">
          <mxGeometry relative="1" as="geometry" />
        </mxCell>
        <mxCell id="UM5Vl2hP91lMK8gzKFPu-2" value="rdfs:subClassOf" style="text;html=1;align=center;verticalAlign=middle;resizable=0;points=[];labelBackgroundColor=#ffffff;fontColor=#000000;" vertex="1" connectable="0" parent="UM5Vl2hP91lMK8gzKFPu-1">
          <mxGeometry x="0.3004" y="-3" relative="1" as="geometry">
            <mxPoint x="-15.83" y="13" as="offset" />
          </mxGeometry>
        </mxCell>
        <mxCell id="UM5Vl2hP91lMK8gzKFPu-3" style="edgeStyle=orthogonalEdgeStyle;curved=1;comic=0;orthogonalLoop=1;jettySize=auto;html=1;shadow=0;startArrow=classic;startFill=1;endArrow=none;endFill=0;exitX=0.5;exitY=1;exitDx=0;exitDy=0;dashed=1;" edge="1" parent="1" source="UM5Vl2hP91lMK8gzKFPu-5" target="UM5Vl2hP91lMK8gzKFPu-88">
          <mxGeometry relative="1" as="geometry" />
        </mxCell>
        <mxCell id="UM5Vl2hP91lMK8gzKFPu-4" value="rdfs:subClassOf" style="text;html=1;align=center;verticalAlign=middle;resizable=0;points=[];labelBackgroundColor=#ffffff;fontColor=#000000;" vertex="1" connectable="0" parent="UM5Vl2hP91lMK8gzKFPu-3">
          <mxGeometry x="0.1369" y="1" relative="1" as="geometry">
            <mxPoint as="offset" />
          </mxGeometry>
        </mxCell>
        <mxCell id="UM5Vl2hP91lMK8gzKFPu-5" value="sbeo:Device" style="ellipse;whiteSpace=wrap;html=1;aspect=fixed;fillColor=#dae8fc;strokeColor=#6c8ebf;shadow=0;" vertex="1" parent="1">
          <mxGeometry x="-150" y="-889" width="80" height="80" as="geometry" />
        </mxCell>
        <mxCell id="UM5Vl2hP91lMK8gzKFPu-6" value="seas:Zone&lt;br&gt;Connection" style="ellipse;whiteSpace=wrap;html=1;aspect=fixed;fillColor=#1ba1e2;strokeColor=#006EAF;fontColor=#ffffff;shadow=0;" vertex="1" parent="1">
          <mxGeometry x="790" y="-839" width="80" height="80" as="geometry" />
        </mxCell>
        <mxCell id="UM5Vl2hP91lMK8gzKFPu-7" style="edgeStyle=orthogonalEdgeStyle;curved=1;comic=0;orthogonalLoop=1;jettySize=auto;html=1;entryX=1;entryY=0.5;entryDx=0;entryDy=0;shadow=0;startArrow=classic;startFill=1;endArrow=none;endFill=0;dashed=1;exitX=0.5;exitY=1;exitDx=0;exitDy=0;" edge="1" parent="1" source="UM5Vl2hP91lMK8gzKFPu-21" target="UM5Vl2hP91lMK8gzKFPu-135">
          <mxGeometry relative="1" as="geometry">
            <Array as="points">
              <mxPoint x="-230" y="-774" />
            </Array>
          </mxGeometry>
        </mxCell>
        <mxCell id="UM5Vl2hP91lMK8gzKFPu-8" value="rdfs:subClassOf" style="text;html=1;align=center;verticalAlign=middle;resizable=0;points=[];labelBackgroundColor=#ffffff;fontColor=#000000;" vertex="1" connectable="0" parent="UM5Vl2hP91lMK8gzKFPu-7">
          <mxGeometry x="0.639" y="13" relative="1" as="geometry">
            <mxPoint x="27" y="-13" as="offset" />
          </mxGeometry>
        </mxCell>
        <mxCell id="UM5Vl2hP91lMK8gzKFPu-9" style="edgeStyle=orthogonalEdgeStyle;curved=1;comic=0;orthogonalLoop=1;jettySize=auto;html=1;entryX=0.5;entryY=0;entryDx=0;entryDy=0;shadow=0;startArrow=classic;startFill=1;endArrow=none;endFill=0;dashed=1;" edge="1" parent="1" source="UM5Vl2hP91lMK8gzKFPu-21" target="UM5Vl2hP91lMK8gzKFPu-134">
          <mxGeometry relative="1" as="geometry">
            <Array as="points">
              <mxPoint x="-230" y="-684" />
            </Array>
          </mxGeometry>
        </mxCell>
        <mxCell id="UM5Vl2hP91lMK8gzKFPu-10" value="rdfs:subClassOf" style="text;html=1;align=center;verticalAlign=middle;resizable=0;points=[];labelBackgroundColor=#ffffff;fontColor=#000000;" vertex="1" connectable="0" parent="UM5Vl2hP91lMK8gzKFPu-9">
          <mxGeometry x="0.7188" y="19" relative="1" as="geometry">
            <mxPoint x="21" y="-24" as="offset" />
          </mxGeometry>
        </mxCell>
        <mxCell id="UM5Vl2hP91lMK8gzKFPu-11" style="edgeStyle=orthogonalEdgeStyle;curved=1;comic=0;orthogonalLoop=1;jettySize=auto;html=1;entryX=1;entryY=0.5;entryDx=0;entryDy=0;shadow=0;startArrow=classic;startFill=1;endArrow=none;endFill=0;dashed=1;" edge="1" parent="1" source="UM5Vl2hP91lMK8gzKFPu-21" target="UM5Vl2hP91lMK8gzKFPu-133">
          <mxGeometry relative="1" as="geometry">
            <Array as="points">
              <mxPoint x="-230" y="-594" />
            </Array>
          </mxGeometry>
        </mxCell>
        <mxCell id="UM5Vl2hP91lMK8gzKFPu-12" value="rdfs:subClassOf" style="text;html=1;align=center;verticalAlign=middle;resizable=0;points=[];labelBackgroundColor=#ffffff;fontColor=#000000;" vertex="1" connectable="0" parent="UM5Vl2hP91lMK8gzKFPu-11">
          <mxGeometry x="0.5095" y="-8" relative="1" as="geometry">
            <mxPoint x="-30" y="-7" as="offset" />
          </mxGeometry>
        </mxCell>
        <mxCell id="UM5Vl2hP91lMK8gzKFPu-13" style="edgeStyle=orthogonalEdgeStyle;curved=1;comic=0;orthogonalLoop=1;jettySize=auto;html=1;entryX=1;entryY=0.5;entryDx=0;entryDy=0;shadow=0;startArrow=classic;startFill=1;endArrow=none;endFill=0;dashed=1;" edge="1" parent="1" source="UM5Vl2hP91lMK8gzKFPu-21" target="UM5Vl2hP91lMK8gzKFPu-115">
          <mxGeometry relative="1" as="geometry">
            <Array as="points">
              <mxPoint x="-230" y="-504" />
            </Array>
          </mxGeometry>
        </mxCell>
        <mxCell id="UM5Vl2hP91lMK8gzKFPu-14" value="rdfs:subClassOf" style="text;html=1;align=center;verticalAlign=middle;resizable=0;points=[];labelBackgroundColor=#ffffff;fontColor=#000000;" vertex="1" connectable="0" parent="UM5Vl2hP91lMK8gzKFPu-13">
          <mxGeometry x="0.6322" y="-15" relative="1" as="geometry">
            <mxPoint x="-23.33" as="offset" />
          </mxGeometry>
        </mxCell>
        <mxCell id="UM5Vl2hP91lMK8gzKFPu-15" style="edgeStyle=orthogonalEdgeStyle;curved=1;comic=0;orthogonalLoop=1;jettySize=auto;html=1;shadow=0;startArrow=classic;startFill=1;endArrow=none;endFill=0;dashed=1;entryX=0.5;entryY=0;entryDx=0;entryDy=0;" edge="1" parent="1" source="UM5Vl2hP91lMK8gzKFPu-21" target="UM5Vl2hP91lMK8gzKFPu-141">
          <mxGeometry relative="1" as="geometry">
            <mxPoint x="-760" y="-719" as="targetPoint" />
            <Array as="points">
              <mxPoint x="-540" y="-849" />
            </Array>
          </mxGeometry>
        </mxCell>
        <mxCell id="UM5Vl2hP91lMK8gzKFPu-16" value="rdfs:subClassOf" style="text;html=1;align=center;verticalAlign=middle;resizable=0;points=[];labelBackgroundColor=#ffffff;fontColor=#000000;" vertex="1" connectable="0" parent="UM5Vl2hP91lMK8gzKFPu-15">
          <mxGeometry x="0.5785" y="1" relative="1" as="geometry">
            <mxPoint x="34.29" y="9" as="offset" />
          </mxGeometry>
        </mxCell>
        <mxCell id="UM5Vl2hP91lMK8gzKFPu-17" style="edgeStyle=orthogonalEdgeStyle;curved=1;comic=0;orthogonalLoop=1;jettySize=auto;html=1;entryX=1;entryY=0.5;entryDx=0;entryDy=0;shadow=0;startArrow=classic;startFill=1;endArrow=none;endFill=0;dashed=1;" edge="1" parent="1" source="UM5Vl2hP91lMK8gzKFPu-21" target="UM5Vl2hP91lMK8gzKFPu-136">
          <mxGeometry relative="1" as="geometry">
            <Array as="points">
              <mxPoint x="-230" y="-414" />
            </Array>
          </mxGeometry>
        </mxCell>
        <mxCell id="UM5Vl2hP91lMK8gzKFPu-18" value="rdfs:subClassOf" style="text;html=1;align=center;verticalAlign=middle;resizable=0;points=[];labelBackgroundColor=#ffffff;fontColor=#000000;" vertex="1" connectable="0" parent="UM5Vl2hP91lMK8gzKFPu-17">
          <mxGeometry x="0.7481" y="-12" relative="1" as="geometry">
            <mxPoint x="-9" y="-13" as="offset" />
          </mxGeometry>
        </mxCell>
        <mxCell id="UM5Vl2hP91lMK8gzKFPu-19" style="edgeStyle=orthogonalEdgeStyle;curved=1;comic=0;orthogonalLoop=1;jettySize=auto;html=1;entryX=1;entryY=0.5;entryDx=0;entryDy=0;shadow=0;startArrow=classic;startFill=1;endArrow=none;endFill=0;dashed=1;exitX=0.5;exitY=1;exitDx=0;exitDy=0;" edge="1" parent="1" source="UM5Vl2hP91lMK8gzKFPu-21" target="UM5Vl2hP91lMK8gzKFPu-142">
          <mxGeometry relative="1" as="geometry">
            <Array as="points">
              <mxPoint x="-230" y="-324" />
            </Array>
          </mxGeometry>
        </mxCell>
        <mxCell id="UM5Vl2hP91lMK8gzKFPu-20" value="rdfs:subClassOf" style="text;html=1;align=center;verticalAlign=middle;resizable=0;points=[];labelBackgroundColor=#ffffff;fontColor=#000000;" vertex="1" connectable="0" parent="UM5Vl2hP91lMK8gzKFPu-19">
          <mxGeometry x="0.3801" y="-12" relative="1" as="geometry">
            <mxPoint x="-78" y="22" as="offset" />
          </mxGeometry>
        </mxCell>
        <mxCell id="UM5Vl2hP91lMK8gzKFPu-21" value="sbeo:Person" style="ellipse;whiteSpace=wrap;html=1;aspect=fixed;fillColor=#1ba1e2;strokeColor=#006EAF;shadow=0;fontColor=#ffffff;" vertex="1" parent="1">
          <mxGeometry x="-270" y="-889" width="80" height="80" as="geometry" />
        </mxCell>
        <mxCell id="UM5Vl2hP91lMK8gzKFPu-22" style="edgeStyle=orthogonalEdgeStyle;curved=1;comic=0;orthogonalLoop=1;jettySize=auto;html=1;entryX=1;entryY=0.5;entryDx=0;entryDy=0;shadow=0;startArrow=classic;startFill=1;endArrow=none;endFill=0;dashed=1;" edge="1" parent="1" source="UM5Vl2hP91lMK8gzKFPu-34" target="UM5Vl2hP91lMK8gzKFPu-114">
          <mxGeometry relative="1" as="geometry">
            <Array as="points">
              <mxPoint x="230" y="-799" />
              <mxPoint x="230" y="-799" />
            </Array>
          </mxGeometry>
        </mxCell>
        <mxCell id="UM5Vl2hP91lMK8gzKFPu-23" value="rdfs:subClassOf" style="text;html=1;align=center;verticalAlign=middle;resizable=0;points=[];labelBackgroundColor=#ffffff;fontColor=#000000;" vertex="1" connectable="0" parent="UM5Vl2hP91lMK8gzKFPu-22">
          <mxGeometry x="0.2353" y="-1" relative="1" as="geometry">
            <mxPoint x="14.12" y="-9" as="offset" />
          </mxGeometry>
        </mxCell>
        <mxCell id="UM5Vl2hP91lMK8gzKFPu-24" style="edgeStyle=orthogonalEdgeStyle;curved=1;comic=0;orthogonalLoop=1;jettySize=auto;html=1;entryX=1;entryY=0.5;entryDx=0;entryDy=0;shadow=0;startArrow=classic;startFill=1;endArrow=none;endFill=0;dashed=1;" edge="1" parent="1" source="UM5Vl2hP91lMK8gzKFPu-34" target="UM5Vl2hP91lMK8gzKFPu-106">
          <mxGeometry relative="1" as="geometry">
            <Array as="points">
              <mxPoint x="240" y="-799" />
              <mxPoint x="240" y="-699" />
            </Array>
          </mxGeometry>
        </mxCell>
        <mxCell id="UM5Vl2hP91lMK8gzKFPu-25" value="rdfs:subClassOf" style="text;html=1;align=center;verticalAlign=middle;resizable=0;points=[];labelBackgroundColor=#ffffff;fontColor=#000000;" vertex="1" connectable="0" parent="UM5Vl2hP91lMK8gzKFPu-24">
          <mxGeometry x="0.4935" y="-3" relative="1" as="geometry">
            <mxPoint x="-7" y="-28.82" as="offset" />
          </mxGeometry>
        </mxCell>
        <mxCell id="UM5Vl2hP91lMK8gzKFPu-26" style="edgeStyle=orthogonalEdgeStyle;curved=1;comic=0;orthogonalLoop=1;jettySize=auto;html=1;exitX=0.5;exitY=1;exitDx=0;exitDy=0;entryX=0.5;entryY=0;entryDx=0;entryDy=0;shadow=0;startArrow=classic;startFill=1;endArrow=none;endFill=0;dashed=1;" edge="1" parent="1" source="UM5Vl2hP91lMK8gzKFPu-34" target="UM5Vl2hP91lMK8gzKFPu-111">
          <mxGeometry relative="1" as="geometry">
            <Array as="points">
              <mxPoint x="370" y="-719" />
              <mxPoint x="320" y="-719" />
            </Array>
          </mxGeometry>
        </mxCell>
        <mxCell id="UM5Vl2hP91lMK8gzKFPu-27" value="rdfs:subClassOf" style="text;html=1;align=center;verticalAlign=middle;resizable=0;points=[];labelBackgroundColor=#ffffff;fontColor=#000000;" vertex="1" connectable="0" parent="UM5Vl2hP91lMK8gzKFPu-26">
          <mxGeometry x="0.4857" y="6" relative="1" as="geometry">
            <mxPoint x="-6" y="16.21" as="offset" />
          </mxGeometry>
        </mxCell>
        <mxCell id="UM5Vl2hP91lMK8gzKFPu-28" style="edgeStyle=orthogonalEdgeStyle;curved=1;comic=0;orthogonalLoop=1;jettySize=auto;html=1;entryX=0.5;entryY=0;entryDx=0;entryDy=0;shadow=0;startArrow=classic;startFill=1;endArrow=none;endFill=0;dashed=1;" edge="1" parent="1" source="UM5Vl2hP91lMK8gzKFPu-34" target="UM5Vl2hP91lMK8gzKFPu-110">
          <mxGeometry relative="1" as="geometry">
            <Array as="points">
              <mxPoint x="370" y="-719" />
              <mxPoint x="420" y="-719" />
            </Array>
          </mxGeometry>
        </mxCell>
        <mxCell id="UM5Vl2hP91lMK8gzKFPu-29" value="rdfs:subClassOf" style="text;html=1;align=center;verticalAlign=middle;resizable=0;points=[];labelBackgroundColor=#ffffff;fontColor=#000000;" vertex="1" connectable="0" parent="UM5Vl2hP91lMK8gzKFPu-28">
          <mxGeometry x="0.4454" y="-9" relative="1" as="geometry">
            <mxPoint x="-1" y="8.620000000000001" as="offset" />
          </mxGeometry>
        </mxCell>
        <mxCell id="UM5Vl2hP91lMK8gzKFPu-30" style="edgeStyle=orthogonalEdgeStyle;curved=1;comic=0;orthogonalLoop=1;jettySize=auto;html=1;entryX=0.5;entryY=0;entryDx=0;entryDy=0;shadow=0;startArrow=classic;startFill=1;endArrow=none;endFill=0;exitX=1;exitY=0.5;exitDx=0;exitDy=0;dashed=1;" edge="1" parent="1" source="UM5Vl2hP91lMK8gzKFPu-34" target="UM5Vl2hP91lMK8gzKFPu-112">
          <mxGeometry relative="1" as="geometry" />
        </mxCell>
        <mxCell id="UM5Vl2hP91lMK8gzKFPu-31" value="rdfs:subClassOf" style="text;html=1;align=center;verticalAlign=middle;resizable=0;points=[];labelBackgroundColor=#ffffff;fontColor=#000000;" vertex="1" connectable="0" parent="UM5Vl2hP91lMK8gzKFPu-30">
          <mxGeometry x="-0.1445" y="-24" relative="1" as="geometry">
            <mxPoint x="15.29" y="-4" as="offset" />
          </mxGeometry>
        </mxCell>
        <mxCell id="UM5Vl2hP91lMK8gzKFPu-32" style="edgeStyle=orthogonalEdgeStyle;curved=1;comic=0;orthogonalLoop=1;jettySize=auto;html=1;exitX=0;exitY=1;exitDx=0;exitDy=0;entryX=1;entryY=0;entryDx=0;entryDy=0;shadow=0;startArrow=classic;startFill=1;endArrow=none;endFill=0;dashed=1;" edge="1" parent="1" source="UM5Vl2hP91lMK8gzKFPu-34" target="UM5Vl2hP91lMK8gzKFPu-113">
          <mxGeometry relative="1" as="geometry" />
        </mxCell>
        <mxCell id="UM5Vl2hP91lMK8gzKFPu-33" value="rdfs:subClassOf" style="text;html=1;align=center;verticalAlign=middle;resizable=0;points=[];labelBackgroundColor=#ffffff;fontColor=#000000;" vertex="1" connectable="0" parent="UM5Vl2hP91lMK8gzKFPu-32">
          <mxGeometry x="0.7075" y="6" relative="1" as="geometry">
            <mxPoint y="-1" as="offset" />
          </mxGeometry>
        </mxCell>
        <mxCell id="UM5Vl2hP91lMK8gzKFPu-34" value="sbeo:Incident" style="ellipse;whiteSpace=wrap;html=1;aspect=fixed;fillColor=#dae8fc;strokeColor=#6c8ebf;shadow=0;" vertex="1" parent="1">
          <mxGeometry x="330" y="-839" width="80" height="80" as="geometry" />
        </mxCell>
        <mxCell id="UM5Vl2hP91lMK8gzKFPu-35" value="sbeo:Route" style="ellipse;whiteSpace=wrap;html=1;aspect=fixed;fillColor=#dae8fc;strokeColor=#6c8ebf;shadow=0;" vertex="1" parent="1">
          <mxGeometry x="-360" y="-949" width="80" height="80" as="geometry" />
        </mxCell>
        <mxCell id="UM5Vl2hP91lMK8gzKFPu-36" style="edgeStyle=orthogonalEdgeStyle;curved=1;comic=0;orthogonalLoop=1;jettySize=auto;html=1;entryX=0.5;entryY=0;entryDx=0;entryDy=0;shadow=0;startArrow=classic;startFill=1;endArrow=none;endFill=0;dashed=1;exitX=0.5;exitY=1;exitDx=0;exitDy=0;" edge="1" parent="1" source="UM5Vl2hP91lMK8gzKFPu-44" target="UM5Vl2hP91lMK8gzKFPu-158">
          <mxGeometry relative="1" as="geometry">
            <Array as="points">
              <mxPoint x="990" y="-694" />
              <mxPoint x="890" y="-694" />
            </Array>
          </mxGeometry>
        </mxCell>
        <mxCell id="UM5Vl2hP91lMK8gzKFPu-37" value="rdfs:subClassOf" style="text;html=1;align=center;verticalAlign=middle;resizable=0;points=[];labelBackgroundColor=#ffffff;fontColor=#000000;" vertex="1" connectable="0" parent="UM5Vl2hP91lMK8gzKFPu-36">
          <mxGeometry x="-0.4006" y="22" relative="1" as="geometry">
            <mxPoint x="-76.07" y="2.969999999999999" as="offset" />
          </mxGeometry>
        </mxCell>
        <mxCell id="UM5Vl2hP91lMK8gzKFPu-38" style="edgeStyle=orthogonalEdgeStyle;curved=1;comic=0;orthogonalLoop=1;jettySize=auto;html=1;exitX=0.5;exitY=1;exitDx=0;exitDy=0;entryX=0.5;entryY=0;entryDx=0;entryDy=0;shadow=0;startArrow=classic;startFill=1;endArrow=none;endFill=0;dashed=1;" edge="1" parent="1" source="UM5Vl2hP91lMK8gzKFPu-44" target="UM5Vl2hP91lMK8gzKFPu-143">
          <mxGeometry relative="1" as="geometry">
            <Array as="points">
              <mxPoint x="990" y="-689" />
              <mxPoint x="1090" y="-689" />
            </Array>
          </mxGeometry>
        </mxCell>
        <mxCell id="UM5Vl2hP91lMK8gzKFPu-39" value="rdfs:subClassOf" style="text;html=1;align=center;verticalAlign=middle;resizable=0;points=[];labelBackgroundColor=#ffffff;fontColor=#000000;" vertex="1" connectable="0" parent="UM5Vl2hP91lMK8gzKFPu-38">
          <mxGeometry x="0.2927" y="8" relative="1" as="geometry">
            <mxPoint x="1.0300000000000002" y="28" as="offset" />
          </mxGeometry>
        </mxCell>
        <mxCell id="UM5Vl2hP91lMK8gzKFPu-40" style="edgeStyle=orthogonalEdgeStyle;curved=1;comic=0;orthogonalLoop=1;jettySize=auto;html=1;entryX=0.5;entryY=0;entryDx=0;entryDy=0;shadow=0;startArrow=classic;startFill=1;endArrow=none;endFill=0;dashed=1;exitX=0.5;exitY=1;exitDx=0;exitDy=0;" edge="1" parent="1" source="UM5Vl2hP91lMK8gzKFPu-44" target="UM5Vl2hP91lMK8gzKFPu-148">
          <mxGeometry relative="1" as="geometry">
            <Array as="points">
              <mxPoint x="990" y="-669" />
              <mxPoint x="990" y="-669" />
            </Array>
          </mxGeometry>
        </mxCell>
        <mxCell id="UM5Vl2hP91lMK8gzKFPu-41" value="rdfs:subClassOf" style="text;html=1;align=center;verticalAlign=middle;resizable=0;points=[];labelBackgroundColor=#ffffff;fontColor=#000000;" vertex="1" connectable="0" parent="UM5Vl2hP91lMK8gzKFPu-40">
          <mxGeometry x="0.2222" y="5" relative="1" as="geometry">
            <mxPoint x="-5" y="28.28" as="offset" />
          </mxGeometry>
        </mxCell>
        <mxCell id="UM5Vl2hP91lMK8gzKFPu-42" style="edgeStyle=orthogonalEdgeStyle;curved=1;comic=0;orthogonalLoop=1;jettySize=auto;html=1;entryX=1;entryY=0.5;entryDx=0;entryDy=0;shadow=0;startArrow=classic;startFill=1;endArrow=none;endFill=0;dashed=1;" edge="1" parent="1" source="UM5Vl2hP91lMK8gzKFPu-44" target="UM5Vl2hP91lMK8gzKFPu-147">
          <mxGeometry relative="1" as="geometry">
            <Array as="points">
              <mxPoint x="900" y="-799" />
              <mxPoint x="900" y="-699" />
            </Array>
          </mxGeometry>
        </mxCell>
        <mxCell id="UM5Vl2hP91lMK8gzKFPu-43" value="rdfs:subClassOf" style="text;html=1;align=center;verticalAlign=middle;resizable=0;points=[];labelBackgroundColor=#ffffff;fontColor=#000000;" vertex="1" connectable="0" parent="UM5Vl2hP91lMK8gzKFPu-42">
          <mxGeometry x="0.3118" y="1" relative="1" as="geometry">
            <mxPoint x="-0.9999999999999982" y="-17.93" as="offset" />
          </mxGeometry>
        </mxCell>
        <mxCell id="UM5Vl2hP91lMK8gzKFPu-44" value="sbeo:Space&lt;br&gt;Characteristic" style="ellipse;aspect=fixed;fillColor=#dae8fc;strokeColor=#6c8ebf;horizontal=1;verticalAlign=middle;align=center;labelBorderColor=none;whiteSpace=wrap;html=1;shadow=0;" vertex="1" parent="1">
          <mxGeometry x="950" y="-839" width="80" height="80" as="geometry" />
        </mxCell>
        <mxCell id="UM5Vl2hP91lMK8gzKFPu-45" style="edgeStyle=orthogonalEdgeStyle;curved=1;comic=0;orthogonalLoop=1;jettySize=auto;html=1;entryX=0.5;entryY=0;entryDx=0;entryDy=0;shadow=0;startArrow=classic;startFill=1;endArrow=none;endFill=0;dashed=1;" edge="1" parent="1" source="UM5Vl2hP91lMK8gzKFPu-47" target="UM5Vl2hP91lMK8gzKFPu-74">
          <mxGeometry relative="1" as="geometry" />
        </mxCell>
        <mxCell id="UM5Vl2hP91lMK8gzKFPu-46" value="rdfs:subClassOf" style="text;html=1;align=center;verticalAlign=middle;resizable=0;points=[];labelBackgroundColor=#ffffff;fontColor=#000000;" vertex="1" connectable="0" parent="UM5Vl2hP91lMK8gzKFPu-45">
          <mxGeometry x="0.5489" y="4" relative="1" as="geometry">
            <mxPoint x="-4" y="-8.33" as="offset" />
          </mxGeometry>
        </mxCell>
        <mxCell id="UM5Vl2hP91lMK8gzKFPu-47" value="seas:Zone" style="ellipse;whiteSpace=wrap;html=1;aspect=fixed;fillColor=#1ba1e2;strokeColor=#006EAF;fontColor=#ffffff;shadow=0;" vertex="1" parent="1">
          <mxGeometry x="570" y="-839.0000000000002" width="80" height="80" as="geometry" />
        </mxCell>
        <mxCell id="UM5Vl2hP91lMK8gzKFPu-48" value="seas:Zone&lt;br&gt;Frontier" style="ellipse;whiteSpace=wrap;html=1;aspect=fixed;fillColor=#1ba1e2;strokeColor=#006EAF;fontColor=#ffffff;shadow=0;" vertex="1" parent="1">
          <mxGeometry x="680" y="-839.0000000000002" width="80" height="80" as="geometry" />
        </mxCell>
        <mxCell id="UM5Vl2hP91lMK8gzKFPu-49" style="edgeStyle=orthogonalEdgeStyle;curved=1;comic=0;orthogonalLoop=1;jettySize=auto;html=1;exitX=0.5;exitY=1;exitDx=0;exitDy=0;entryX=0.5;entryY=0;entryDx=0;entryDy=0;shadow=0;startArrow=classic;startFill=1;endArrow=none;endFill=0;dashed=1;" edge="1" parent="1" source="UM5Vl2hP91lMK8gzKFPu-68" target="UM5Vl2hP91lMK8gzKFPu-5">
          <mxGeometry relative="1" as="geometry" />
        </mxCell>
        <mxCell id="UM5Vl2hP91lMK8gzKFPu-50" value="rdfs:subClassOf" style="text;html=1;align=center;verticalAlign=middle;resizable=0;points=[];labelBackgroundColor=#ffffff;fontColor=#000000;" vertex="1" connectable="0" parent="UM5Vl2hP91lMK8gzKFPu-49">
          <mxGeometry x="-0.1458" y="-2" relative="1" as="geometry">
            <mxPoint as="offset" />
          </mxGeometry>
        </mxCell>
        <mxCell id="UM5Vl2hP91lMK8gzKFPu-51" style="edgeStyle=orthogonalEdgeStyle;curved=1;comic=0;orthogonalLoop=1;jettySize=auto;html=1;exitX=0.5;exitY=1;exitDx=0;exitDy=0;entryX=0.5;entryY=0;entryDx=0;entryDy=0;shadow=0;startArrow=classic;startFill=1;endArrow=none;endFill=0;dashed=1;" edge="1" parent="1" source="UM5Vl2hP91lMK8gzKFPu-68" target="UM5Vl2hP91lMK8gzKFPu-34">
          <mxGeometry relative="1" as="geometry">
            <Array as="points">
              <mxPoint x="60" y="-919" />
              <mxPoint x="370" y="-919" />
            </Array>
          </mxGeometry>
        </mxCell>
        <mxCell id="UM5Vl2hP91lMK8gzKFPu-52" value="rdfs:subClassOf" style="text;html=1;align=center;verticalAlign=middle;resizable=0;points=[];labelBackgroundColor=#ffffff;fontColor=#000000;" vertex="1" connectable="0" parent="UM5Vl2hP91lMK8gzKFPu-51">
          <mxGeometry x="0.8654" y="-15" relative="1" as="geometry">
            <mxPoint as="offset" />
          </mxGeometry>
        </mxCell>
        <mxCell id="UM5Vl2hP91lMK8gzKFPu-53" style="edgeStyle=orthogonalEdgeStyle;curved=1;comic=0;orthogonalLoop=1;jettySize=auto;html=1;exitX=0.5;exitY=1;exitDx=0;exitDy=0;shadow=0;startArrow=classic;startFill=1;endArrow=none;endFill=0;dashed=1;" edge="1" parent="1" source="UM5Vl2hP91lMK8gzKFPu-68" target="UM5Vl2hP91lMK8gzKFPu-44">
          <mxGeometry relative="1" as="geometry" />
        </mxCell>
        <mxCell id="UM5Vl2hP91lMK8gzKFPu-54" value="rdfs:subClassOf" style="text;html=1;align=center;verticalAlign=middle;resizable=0;points=[];labelBackgroundColor=#ffffff;fontColor=#000000;" vertex="1" connectable="0" parent="UM5Vl2hP91lMK8gzKFPu-53">
          <mxGeometry x="0.7195" y="-25" relative="1" as="geometry">
            <mxPoint x="39" y="16" as="offset" />
          </mxGeometry>
        </mxCell>
        <mxCell id="UM5Vl2hP91lMK8gzKFPu-55" style="edgeStyle=orthogonalEdgeStyle;curved=1;comic=0;orthogonalLoop=1;jettySize=auto;html=1;exitX=0.5;exitY=1;exitDx=0;exitDy=0;entryX=0.5;entryY=0;entryDx=0;entryDy=0;shadow=0;startArrow=classic;startFill=1;endArrow=none;endFill=0;dashed=1;" edge="1" parent="1" source="UM5Vl2hP91lMK8gzKFPu-68" target="UM5Vl2hP91lMK8gzKFPu-47">
          <mxGeometry relative="1" as="geometry" />
        </mxCell>
        <mxCell id="UM5Vl2hP91lMK8gzKFPu-56" value="rdfs:subClassOf" style="text;html=1;align=center;verticalAlign=middle;resizable=0;points=[];labelBackgroundColor=#ffffff;fontColor=#000000;" vertex="1" connectable="0" parent="UM5Vl2hP91lMK8gzKFPu-55">
          <mxGeometry x="0.9604" y="-7" relative="1" as="geometry">
            <mxPoint x="-3" y="-12.469999999999999" as="offset" />
          </mxGeometry>
        </mxCell>
        <mxCell id="UM5Vl2hP91lMK8gzKFPu-57" style="edgeStyle=orthogonalEdgeStyle;curved=1;comic=0;orthogonalLoop=1;jettySize=auto;html=1;exitX=0.5;exitY=1;exitDx=0;exitDy=0;entryX=0.5;entryY=0;entryDx=0;entryDy=0;shadow=0;startArrow=classic;startFill=1;endArrow=none;endFill=0;dashed=1;" edge="1" parent="1" source="UM5Vl2hP91lMK8gzKFPu-68" target="UM5Vl2hP91lMK8gzKFPu-48">
          <mxGeometry relative="1" as="geometry" />
        </mxCell>
        <mxCell id="UM5Vl2hP91lMK8gzKFPu-58" value="rdfs:subClassOf" style="text;html=1;align=center;verticalAlign=middle;resizable=0;points=[];labelBackgroundColor=#ffffff;fontColor=#000000;" vertex="1" connectable="0" parent="UM5Vl2hP91lMK8gzKFPu-57">
          <mxGeometry x="0.9335" y="-12" relative="1" as="geometry">
            <mxPoint as="offset" />
          </mxGeometry>
        </mxCell>
        <mxCell id="UM5Vl2hP91lMK8gzKFPu-59" style="edgeStyle=orthogonalEdgeStyle;curved=1;comic=0;orthogonalLoop=1;jettySize=auto;html=1;exitX=0.5;exitY=1;exitDx=0;exitDy=0;entryX=0.5;entryY=0;entryDx=0;entryDy=0;shadow=0;startArrow=classic;startFill=1;endArrow=none;endFill=0;dashed=1;" edge="1" parent="1" source="UM5Vl2hP91lMK8gzKFPu-68" target="UM5Vl2hP91lMK8gzKFPu-6">
          <mxGeometry relative="1" as="geometry" />
        </mxCell>
        <mxCell id="UM5Vl2hP91lMK8gzKFPu-60" value="rdfs:subClassOf" style="text;html=1;align=center;verticalAlign=middle;resizable=0;points=[];labelBackgroundColor=#ffffff;fontColor=#000000;" vertex="1" connectable="0" parent="UM5Vl2hP91lMK8gzKFPu-59">
          <mxGeometry x="0.939" y="-19" relative="1" as="geometry">
            <mxPoint as="offset" />
          </mxGeometry>
        </mxCell>
        <mxCell id="UM5Vl2hP91lMK8gzKFPu-61" style="edgeStyle=orthogonalEdgeStyle;comic=0;orthogonalLoop=1;jettySize=auto;html=1;shadow=0;startArrow=classic;startFill=1;endArrow=none;endFill=0;curved=1;dashed=1;" edge="1" parent="1" source="UM5Vl2hP91lMK8gzKFPu-68" target="UM5Vl2hP91lMK8gzKFPu-105">
          <mxGeometry relative="1" as="geometry" />
        </mxCell>
        <mxCell id="UM5Vl2hP91lMK8gzKFPu-62" value="rdfs:subClassOf" style="text;align=center;verticalAlign=middle;resizable=0;points=[];labelBackgroundColor=#ffffff;" vertex="1" connectable="0" parent="UM5Vl2hP91lMK8gzKFPu-61">
          <mxGeometry x="0.2476" y="18" relative="1" as="geometry">
            <mxPoint x="-101.67" y="22" as="offset" />
          </mxGeometry>
        </mxCell>
        <mxCell id="UM5Vl2hP91lMK8gzKFPu-63" style="edgeStyle=orthogonalEdgeStyle;curved=1;comic=0;orthogonalLoop=1;jettySize=auto;html=1;shadow=0;startArrow=classic;startFill=1;endArrow=none;endFill=0;dashed=1;" edge="1" parent="1" source="UM5Vl2hP91lMK8gzKFPu-68" target="UM5Vl2hP91lMK8gzKFPu-35">
          <mxGeometry relative="1" as="geometry" />
        </mxCell>
        <mxCell id="UM5Vl2hP91lMK8gzKFPu-64" value="rdfs:subClassOf" style="text;align=center;verticalAlign=middle;resizable=0;points=[];labelBackgroundColor=#ffffff;labelBorderColor=none;fontColor=#000000;rotation=0;" vertex="1" connectable="0" parent="UM5Vl2hP91lMK8gzKFPu-63">
          <mxGeometry x="0.5021" y="43" relative="1" as="geometry">
            <mxPoint x="-1.6700000000000017" y="-3" as="offset" />
          </mxGeometry>
        </mxCell>
        <mxCell id="UM5Vl2hP91lMK8gzKFPu-65" style="edgeStyle=orthogonalEdgeStyle;curved=1;comic=0;orthogonalLoop=1;jettySize=auto;html=1;entryX=0.5;entryY=0;entryDx=0;entryDy=0;shadow=0;startArrow=classic;startFill=1;endArrow=none;endFill=0;dashed=1;" edge="1" parent="1" source="UM5Vl2hP91lMK8gzKFPu-68" target="UM5Vl2hP91lMK8gzKFPu-21">
          <mxGeometry relative="1" as="geometry" />
        </mxCell>
        <mxCell id="UM5Vl2hP91lMK8gzKFPu-66" value="&lt;span style=&quot;color: rgba(0 , 0 , 0 , 0) ; font-family: monospace ; font-size: 0px ; background-color: rgb(248 , 249 , 250)&quot;&gt;%3CmxGraphModel%3E%3Croot%3E%3CmxCell%20id%3D%220%22%2F%3E%3CmxCell%20id%3D%221%22%20parent%3D%220%22%2F%3E%3CmxCell%20id%3D%222%22%20value%3D%22rdfs%3AsubClassOf%22%20style%3D%22text%3Balign%3Dcenter%3BverticalAlign%3Dmiddle%3Bresizable%3D0%3Bpoints%3D%5B%5D%3BlabelBackgroundColor%3D%23ffffff%3BlabelBorderColor%3Dnone%3B%22%20vertex%3D%221%22%20connectable%3D%220%22%20parent%3D%221%22%3E%3CmxGeometry%20x%3D%22-372.9970588235292%22%20y%3D%22100%22%20as%3D%22geometry%22%3E%3CmxPoint%20x%3D%2224.65%22%20y%3D%22-3%22%20as%3D%22offset%22%2F%3E%3C%2FmxGeometry%3E%3C%2FmxCell%3E%3C%2Froot%3E%3C%2FmxGraphModel%3E&lt;/span&gt;&lt;span style=&quot;color: rgba(0 , 0 , 0 , 0) ; font-family: monospace ; font-size: 0px ; background-color: rgb(248 , 249 , 250)&quot;&gt;%3CmxGraphModel%3E%3Croot%3E%3CmxCell%20id%3D%220%22%2F%3E%3CmxCell%20id%3D%221%22%20parent%3D%220%22%2F%3E%3CmxCell%20id%3D%222%22%20value%3D%22rdfs%3AsubClassOf%22%20style%3D%22text%3Balign%3Dcenter%3BverticalAlign%3Dmiddle%3Bresizable%3D0%3Bpoints%3D%5B%5D%3BlabelBackgroundColor%3D%23ffffff%3BlabelBorderColor%3Dnone%3B%22%20vertex%3D%221%22%20connectable%3D%220%22%20parent%3D%221%22%3E%3CmxGeometry%20x%3D%22-372.9970588235292%22%20y%3D%22100%22%20as%3D%22geometry%22%3E%3CmxPoint%20x%3D%2224.65%22%20y%3D%22-3%22%20as%3D%22offset%22%2F%3E%3C%2FmxGeometry%3E%3C%2FmxCell%3E%3C%2Froot%3E%3C%2FmxGraphModel%3E&lt;/span&gt;" style="text;html=1;align=center;verticalAlign=middle;resizable=0;points=[];labelBackgroundColor=#ffffff;fontColor=#000000;" vertex="1" connectable="0" parent="UM5Vl2hP91lMK8gzKFPu-65">
          <mxGeometry x="-0.0207" y="103" relative="1" as="geometry">
            <mxPoint x="71" as="offset" />
          </mxGeometry>
        </mxCell>
        <mxCell id="UM5Vl2hP91lMK8gzKFPu-67" value="rdfs:subClassOf" style="text;html=1;align=center;verticalAlign=middle;resizable=0;points=[];labelBackgroundColor=#ffffff;fontColor=#000000;" vertex="1" connectable="0" parent="UM5Vl2hP91lMK8gzKFPu-65">
          <mxGeometry x="-0.035" y="98" relative="1" as="geometry">
            <mxPoint x="-36.67" y="-18" as="offset" />
          </mxGeometry>
        </mxCell>
        <mxCell id="UM5Vl2hP91lMK8gzKFPu-68" value="owl:Thing" style="ellipse;whiteSpace=wrap;html=1;aspect=fixed;shadow=0;" vertex="1" parent="1">
          <mxGeometry x="20" y="-1059" width="80" height="80" as="geometry" />
        </mxCell>
        <mxCell id="UM5Vl2hP91lMK8gzKFPu-69" style="edgeStyle=orthogonalEdgeStyle;curved=1;comic=0;orthogonalLoop=1;jettySize=auto;html=1;exitX=0.5;exitY=1;exitDx=0;exitDy=0;shadow=0;startArrow=classic;startFill=1;endArrow=none;endFill=0;dashed=1;" edge="1" parent="1" source="UM5Vl2hP91lMK8gzKFPu-71" target="UM5Vl2hP91lMK8gzKFPu-93">
          <mxGeometry relative="1" as="geometry" />
        </mxCell>
        <mxCell id="UM5Vl2hP91lMK8gzKFPu-70" value="rdfs:subClassOf" style="text;html=1;align=center;verticalAlign=middle;resizable=0;points=[];labelBackgroundColor=#ffffff;fontColor=#000000;" vertex="1" connectable="0" parent="UM5Vl2hP91lMK8gzKFPu-69">
          <mxGeometry x="-0.1658" y="1" relative="1" as="geometry">
            <mxPoint x="-1" y="3.33" as="offset" />
          </mxGeometry>
        </mxCell>
        <mxCell id="UM5Vl2hP91lMK8gzKFPu-71" value="sbeo:Incident&lt;br&gt;Protection" style="ellipse;whiteSpace=wrap;html=1;aspect=fixed;fillColor=#dae8fc;strokeColor=#6c8ebf;shadow=0;" vertex="1" parent="1">
          <mxGeometry x="-220" y="-749" width="80" height="80" as="geometry" />
        </mxCell>
        <mxCell id="UM5Vl2hP91lMK8gzKFPu-72" style="edgeStyle=orthogonalEdgeStyle;curved=1;comic=0;orthogonalLoop=1;jettySize=auto;html=1;shadow=0;startArrow=classic;startFill=1;endArrow=none;endFill=0;dashed=1;" edge="1" parent="1" source="UM5Vl2hP91lMK8gzKFPu-74" target="UM5Vl2hP91lMK8gzKFPu-79">
          <mxGeometry relative="1" as="geometry" />
        </mxCell>
        <mxCell id="UM5Vl2hP91lMK8gzKFPu-73" value="rdfs:subClassOf" style="text;html=1;align=center;verticalAlign=middle;resizable=0;points=[];labelBackgroundColor=#ffffff;fontColor=#000000;" vertex="1" connectable="0" parent="UM5Vl2hP91lMK8gzKFPu-72">
          <mxGeometry x="-0.3157" y="-24" relative="1" as="geometry">
            <mxPoint x="24" y="6.670000000000002" as="offset" />
          </mxGeometry>
        </mxCell>
        <mxCell id="UM5Vl2hP91lMK8gzKFPu-74" value="seas:Building&lt;br&gt;Space" style="ellipse;whiteSpace=wrap;html=1;aspect=fixed;fillColor=#1ba1e2;strokeColor=#006EAF;fontColor=#ffffff;shadow=0;" vertex="1" parent="1">
          <mxGeometry x="570" y="-709.0000000000002" width="80" height="80" as="geometry" />
        </mxCell>
        <mxCell id="UM5Vl2hP91lMK8gzKFPu-75" style="edgeStyle=orthogonalEdgeStyle;curved=1;comic=0;orthogonalLoop=1;jettySize=auto;html=1;exitX=0.5;exitY=1;exitDx=0;exitDy=0;shadow=0;startArrow=classic;startFill=1;endArrow=none;endFill=0;entryX=0.5;entryY=0;entryDx=0;entryDy=0;dashed=1;" edge="1" parent="1" source="UM5Vl2hP91lMK8gzKFPu-79" target="UM5Vl2hP91lMK8gzKFPu-80">
          <mxGeometry relative="1" as="geometry">
            <Array as="points">
              <mxPoint x="610" y="-479" />
              <mxPoint x="530" y="-479" />
            </Array>
          </mxGeometry>
        </mxCell>
        <mxCell id="UM5Vl2hP91lMK8gzKFPu-76" value="rdfs:subClassOf" style="text;html=1;align=center;verticalAlign=middle;resizable=0;points=[];labelBackgroundColor=#ffffff;fontColor=#000000;" vertex="1" connectable="0" parent="UM5Vl2hP91lMK8gzKFPu-75">
          <mxGeometry x="-0.5276" y="-14" relative="1" as="geometry">
            <mxPoint x="-77.5" y="29" as="offset" />
          </mxGeometry>
        </mxCell>
        <mxCell id="UM5Vl2hP91lMK8gzKFPu-77" style="edgeStyle=orthogonalEdgeStyle;curved=1;comic=0;orthogonalLoop=1;jettySize=auto;html=1;entryX=0.5;entryY=0;entryDx=0;entryDy=0;shadow=0;startArrow=classic;startFill=1;endArrow=none;endFill=0;dashed=1;" edge="1" parent="1" source="UM5Vl2hP91lMK8gzKFPu-79" target="UM5Vl2hP91lMK8gzKFPu-81">
          <mxGeometry relative="1" as="geometry">
            <Array as="points">
              <mxPoint x="610" y="-479" />
              <mxPoint x="690" y="-479" />
            </Array>
          </mxGeometry>
        </mxCell>
        <mxCell id="UM5Vl2hP91lMK8gzKFPu-78" value="rdfs:subClassOf" style="text;html=1;align=center;verticalAlign=middle;resizable=0;points=[];labelBackgroundColor=#ffffff;fontColor=#000000;" vertex="1" connectable="0" parent="UM5Vl2hP91lMK8gzKFPu-77">
          <mxGeometry x="-0.1822" y="-30" relative="1" as="geometry">
            <mxPoint x="38.57000000000001" y="-15" as="offset" />
          </mxGeometry>
        </mxCell>
        <mxCell id="UM5Vl2hP91lMK8gzKFPu-79" value="seas:Room" style="ellipse;whiteSpace=wrap;html=1;aspect=fixed;fillColor=#1ba1e2;strokeColor=#006EAF;fontColor=#ffffff;shadow=0;" vertex="1" parent="1">
          <mxGeometry x="570" y="-589.0000000000002" width="80" height="80" as="geometry" />
        </mxCell>
        <mxCell id="UM5Vl2hP91lMK8gzKFPu-80" value="sbeo:DayCare" style="ellipse;whiteSpace=wrap;html=1;aspect=fixed;fillColor=#dae8fc;strokeColor=#6c8ebf;shadow=0;" vertex="1" parent="1">
          <mxGeometry x="490" y="-439" width="80" height="80" as="geometry" />
        </mxCell>
        <mxCell id="UM5Vl2hP91lMK8gzKFPu-81" value="sbeo:KidsArea" style="ellipse;whiteSpace=wrap;html=1;aspect=fixed;fillColor=#dae8fc;strokeColor=#6c8ebf;shadow=0;" vertex="1" parent="1">
          <mxGeometry x="650" y="-439" width="80" height="80" as="geometry" />
        </mxCell>
        <mxCell id="UM5Vl2hP91lMK8gzKFPu-82" style="edgeStyle=orthogonalEdgeStyle;curved=1;comic=0;orthogonalLoop=1;jettySize=auto;html=1;shadow=0;startArrow=classic;startFill=1;endArrow=none;endFill=0;dashed=1;" edge="1" parent="1" source="UM5Vl2hP91lMK8gzKFPu-88" target="UM5Vl2hP91lMK8gzKFPu-96">
          <mxGeometry relative="1" as="geometry" />
        </mxCell>
        <mxCell id="UM5Vl2hP91lMK8gzKFPu-83" value="rdfs:subClassOf" style="text;html=1;align=center;verticalAlign=middle;resizable=0;points=[];labelBackgroundColor=#ffffff;fontColor=#000000;" vertex="1" connectable="0" parent="UM5Vl2hP91lMK8gzKFPu-82">
          <mxGeometry x="0.2353" y="7" relative="1" as="geometry">
            <mxPoint x="1" as="offset" />
          </mxGeometry>
        </mxCell>
        <mxCell id="UM5Vl2hP91lMK8gzKFPu-84" style="edgeStyle=orthogonalEdgeStyle;curved=1;comic=0;orthogonalLoop=1;jettySize=auto;html=1;exitX=0.5;exitY=1;exitDx=0;exitDy=0;shadow=0;startArrow=classic;startFill=1;endArrow=none;endFill=0;dashed=1;" edge="1" parent="1" source="UM5Vl2hP91lMK8gzKFPu-88" target="UM5Vl2hP91lMK8gzKFPu-95">
          <mxGeometry relative="1" as="geometry" />
        </mxCell>
        <mxCell id="UM5Vl2hP91lMK8gzKFPu-85" value="rdfs:subClassOf" style="text;html=1;align=center;verticalAlign=middle;resizable=0;points=[];labelBackgroundColor=#ffffff;fontColor=#000000;" vertex="1" connectable="0" parent="UM5Vl2hP91lMK8gzKFPu-84">
          <mxGeometry x="0.4366" y="-10" relative="1" as="geometry">
            <mxPoint as="offset" />
          </mxGeometry>
        </mxCell>
        <mxCell id="UM5Vl2hP91lMK8gzKFPu-86" style="edgeStyle=orthogonalEdgeStyle;curved=1;comic=0;orthogonalLoop=1;jettySize=auto;html=1;entryX=0.5;entryY=0;entryDx=0;entryDy=0;shadow=0;startArrow=classic;startFill=1;endArrow=none;endFill=0;exitX=0.5;exitY=1;exitDx=0;exitDy=0;dashed=1;" edge="1" parent="1" source="UM5Vl2hP91lMK8gzKFPu-88" target="UM5Vl2hP91lMK8gzKFPu-94">
          <mxGeometry relative="1" as="geometry" />
        </mxCell>
        <mxCell id="UM5Vl2hP91lMK8gzKFPu-87" value="rdfs:subClassOf" style="text;html=1;align=center;verticalAlign=middle;resizable=0;points=[];labelBackgroundColor=#ffffff;fontColor=#000000;" vertex="1" connectable="0" parent="UM5Vl2hP91lMK8gzKFPu-86">
          <mxGeometry x="0.4014" y="1" relative="1" as="geometry">
            <mxPoint x="-10.55" y="5.97" as="offset" />
          </mxGeometry>
        </mxCell>
        <mxCell id="UM5Vl2hP91lMK8gzKFPu-88" value="sbeo:Sensor" style="ellipse;whiteSpace=wrap;html=1;aspect=fixed;fillColor=#dae8fc;strokeColor=#6c8ebf;shadow=0;" vertex="1" parent="1">
          <mxGeometry x="-2" y="-739" width="80" height="80" as="geometry" />
        </mxCell>
        <mxCell id="UM5Vl2hP91lMK8gzKFPu-89" style="edgeStyle=orthogonalEdgeStyle;curved=1;comic=0;orthogonalLoop=1;jettySize=auto;html=1;exitX=0.5;exitY=1;exitDx=0;exitDy=0;shadow=0;startArrow=classic;startFill=1;endArrow=none;endFill=0;dashed=1;" edge="1" parent="1" source="UM5Vl2hP91lMK8gzKFPu-93" target="UM5Vl2hP91lMK8gzKFPu-101">
          <mxGeometry relative="1" as="geometry">
            <Array as="points">
              <mxPoint x="-180" y="-499" />
              <mxPoint x="-180" y="-499" />
            </Array>
          </mxGeometry>
        </mxCell>
        <mxCell id="UM5Vl2hP91lMK8gzKFPu-90" value="rdfs:subClassOf" style="text;html=1;align=center;verticalAlign=middle;resizable=0;points=[];labelBackgroundColor=#ffffff;fontColor=#000000;" vertex="1" connectable="0" parent="UM5Vl2hP91lMK8gzKFPu-89">
          <mxGeometry x="-0.3578" y="-8" relative="1" as="geometry">
            <mxPoint x="8" y="12" as="offset" />
          </mxGeometry>
        </mxCell>
        <mxCell id="UM5Vl2hP91lMK8gzKFPu-91" style="edgeStyle=orthogonalEdgeStyle;curved=1;comic=0;orthogonalLoop=1;jettySize=auto;html=1;shadow=0;startArrow=classic;startFill=1;endArrow=none;endFill=0;exitX=1;exitY=0.5;exitDx=0;exitDy=0;dashed=1;entryX=0.5;entryY=0;entryDx=0;entryDy=0;" edge="1" parent="1" source="UM5Vl2hP91lMK8gzKFPu-93" target="UM5Vl2hP91lMK8gzKFPu-104">
          <mxGeometry relative="1" as="geometry">
            <Array as="points">
              <mxPoint x="-110" y="-589" />
              <mxPoint x="-110" y="-549" />
              <mxPoint x="-30" y="-549" />
              <mxPoint x="-30" y="-494" />
            </Array>
          </mxGeometry>
        </mxCell>
        <mxCell id="UM5Vl2hP91lMK8gzKFPu-92" value="rdfs:subClassOf" style="text;html=1;align=center;verticalAlign=middle;resizable=0;points=[];labelBackgroundColor=#ffffff;fontColor=#000000;" vertex="1" connectable="0" parent="UM5Vl2hP91lMK8gzKFPu-91">
          <mxGeometry x="0.4105" y="-10" relative="1" as="geometry">
            <mxPoint x="-20" y="-6" as="offset" />
          </mxGeometry>
        </mxCell>
        <mxCell id="UM5Vl2hP91lMK8gzKFPu-93" value="sbeo:Fire&lt;br&gt;Protection" style="ellipse;whiteSpace=wrap;html=1;aspect=fixed;fillColor=#dae8fc;strokeColor=#6c8ebf;shadow=0;" vertex="1" parent="1">
          <mxGeometry x="-220" y="-629" width="80" height="80" as="geometry" />
        </mxCell>
        <mxCell id="UM5Vl2hP91lMK8gzKFPu-94" value="&lt;span style=&quot;white-space: normal&quot;&gt;sbeo:Temperature&lt;br&gt;Sensor&lt;br&gt;&lt;/span&gt;" style="ellipse;whiteSpace=wrap;html=1;aspect=fixed;fillColor=#dae8fc;strokeColor=#6c8ebf;shadow=0;" vertex="1" parent="1">
          <mxGeometry x="110" y="-589" width="80" height="80" as="geometry" />
        </mxCell>
        <mxCell id="UM5Vl2hP91lMK8gzKFPu-95" value="&lt;span style=&quot;white-space: normal&quot;&gt;sbeo:Smoke&lt;br&gt;Sensor&lt;/span&gt;" style="ellipse;whiteSpace=wrap;html=1;aspect=fixed;fillColor=#dae8fc;strokeColor=#6c8ebf;shadow=0;" vertex="1" parent="1">
          <mxGeometry x="-3" y="-589" width="80" height="80" as="geometry" />
        </mxCell>
        <mxCell id="UM5Vl2hP91lMK8gzKFPu-96" value="&lt;span style=&quot;white-space: normal&quot;&gt;sbeo:Location&lt;br&gt;Sensor&lt;/span&gt;" style="ellipse;whiteSpace=wrap;html=1;aspect=fixed;fillColor=#dae8fc;strokeColor=#6c8ebf;shadow=0;" vertex="1" parent="1">
          <mxGeometry x="-100" y="-649" width="80" height="80" as="geometry" />
        </mxCell>
        <mxCell id="UM5Vl2hP91lMK8gzKFPu-97" value="&lt;span style=&quot;white-space: normal&quot;&gt;sbeo:FireDoor&lt;/span&gt;" style="ellipse;whiteSpace=wrap;html=1;aspect=fixed;fillColor=#dae8fc;strokeColor=#6c8ebf;shadow=0;" vertex="1" parent="1">
          <mxGeometry x="-100" y="-364" width="80" height="80" as="geometry" />
        </mxCell>
        <mxCell id="UM5Vl2hP91lMK8gzKFPu-98" value="&lt;span style=&quot;white-space: normal&quot;&gt;sbeo:Fire&lt;br&gt;Extinguisher&lt;br&gt;&lt;/span&gt;" style="ellipse;whiteSpace=wrap;html=1;aspect=fixed;fillColor=#dae8fc;strokeColor=#6c8ebf;shadow=0;" vertex="1" parent="1">
          <mxGeometry x="-220" y="-364" width="80" height="80" as="geometry" />
        </mxCell>
        <mxCell id="UM5Vl2hP91lMK8gzKFPu-99" style="edgeStyle=orthogonalEdgeStyle;curved=1;comic=0;orthogonalLoop=1;jettySize=auto;html=1;shadow=0;startArrow=classic;startFill=1;endArrow=none;endFill=0;dashed=1;" edge="1" parent="1" source="UM5Vl2hP91lMK8gzKFPu-101" target="UM5Vl2hP91lMK8gzKFPu-98">
          <mxGeometry relative="1" as="geometry" />
        </mxCell>
        <mxCell id="UM5Vl2hP91lMK8gzKFPu-100" value="rdfs:subClassOf" style="text;html=1;align=center;verticalAlign=middle;resizable=0;points=[];labelBackgroundColor=#ffffff;fontColor=#000000;" vertex="1" connectable="0" parent="UM5Vl2hP91lMK8gzKFPu-99">
          <mxGeometry x="-0.3157" y="2" relative="1" as="geometry">
            <mxPoint x="-2" y="13" as="offset" />
          </mxGeometry>
        </mxCell>
        <mxCell id="UM5Vl2hP91lMK8gzKFPu-101" value="&lt;span style=&quot;white-space: normal&quot;&gt;sbeo:Passive&lt;br&gt;FrieProtection&lt;br&gt;&lt;/span&gt;" style="ellipse;whiteSpace=wrap;html=1;aspect=fixed;fillColor=#dae8fc;strokeColor=#6c8ebf;shadow=0;" vertex="1" parent="1">
          <mxGeometry x="-220" y="-494" width="80" height="80" as="geometry" />
        </mxCell>
        <mxCell id="UM5Vl2hP91lMK8gzKFPu-102" style="edgeStyle=orthogonalEdgeStyle;curved=1;comic=0;orthogonalLoop=1;jettySize=auto;html=1;entryX=0.5;entryY=0;entryDx=0;entryDy=0;shadow=0;startArrow=classic;startFill=1;endArrow=none;endFill=0;dashed=1;" edge="1" parent="1" source="UM5Vl2hP91lMK8gzKFPu-104" target="UM5Vl2hP91lMK8gzKFPu-97">
          <mxGeometry relative="1" as="geometry" />
        </mxCell>
        <mxCell id="UM5Vl2hP91lMK8gzKFPu-103" value="rdfs:subClassOf" style="text;html=1;align=center;verticalAlign=middle;resizable=0;points=[];labelBackgroundColor=#ffffff;fontColor=#000000;" vertex="1" connectable="0" parent="UM5Vl2hP91lMK8gzKFPu-102">
          <mxGeometry x="-0.2176" y="-2" relative="1" as="geometry">
            <mxPoint x="2" y="10" as="offset" />
          </mxGeometry>
        </mxCell>
        <mxCell id="UM5Vl2hP91lMK8gzKFPu-104" value="&lt;span style=&quot;white-space: normal&quot;&gt;sbeo:Active&lt;br&gt;FireProtection&lt;/span&gt;" style="ellipse;whiteSpace=wrap;html=1;aspect=fixed;fillColor=#dae8fc;strokeColor=#6c8ebf;shadow=0;" vertex="1" parent="1">
          <mxGeometry x="-100" y="-494" width="80" height="80" as="geometry" />
        </mxCell>
        <mxCell id="UM5Vl2hP91lMK8gzKFPu-105" value="&lt;span style=&quot;white-space: normal&quot;&gt;sbeo:Distance&lt;/span&gt;" style="ellipse;whiteSpace=wrap;html=1;aspect=fixed;fillColor=#dae8fc;strokeColor=#6c8ebf;shadow=0;" vertex="1" parent="1">
          <mxGeometry x="-460" y="-949" width="80" height="80" as="geometry" />
        </mxCell>
        <mxCell id="UM5Vl2hP91lMK8gzKFPu-106" value="&lt;span style=&quot;white-space: normal&quot;&gt;sbeo:Terrorist&lt;br&gt;Attack&lt;/span&gt;" style="ellipse;whiteSpace=wrap;html=1;aspect=fixed;fillColor=#dae8fc;strokeColor=#6c8ebf;shadow=0;" vertex="1" parent="1">
          <mxGeometry x="110" y="-739" width="80" height="80" as="geometry" />
        </mxCell>
        <mxCell id="UM5Vl2hP91lMK8gzKFPu-107" value="&lt;span style=&quot;white-space: normal&quot;&gt;sbeo:Stempeding&lt;/span&gt;" style="ellipse;whiteSpace=wrap;html=1;aspect=fixed;fillColor=#dae8fc;strokeColor=#6c8ebf;shadow=0;" vertex="1" parent="1">
          <mxGeometry x="380" y="-529" width="80" height="80" as="geometry" />
        </mxCell>
        <mxCell id="UM5Vl2hP91lMK8gzKFPu-108" style="edgeStyle=orthogonalEdgeStyle;curved=1;comic=0;orthogonalLoop=1;jettySize=auto;html=1;entryX=0.5;entryY=0;entryDx=0;entryDy=0;shadow=0;startArrow=classic;startFill=1;endArrow=none;endFill=0;dashed=1;" edge="1" parent="1" source="UM5Vl2hP91lMK8gzKFPu-110" target="UM5Vl2hP91lMK8gzKFPu-107">
          <mxGeometry relative="1" as="geometry" />
        </mxCell>
        <mxCell id="UM5Vl2hP91lMK8gzKFPu-109" value="rdfs:subClassOf" style="text;html=1;align=center;verticalAlign=middle;resizable=0;points=[];labelBackgroundColor=#ffffff;fontColor=#000000;" vertex="1" connectable="0" parent="UM5Vl2hP91lMK8gzKFPu-108">
          <mxGeometry x="-0.4974" y="-6" relative="1" as="geometry">
            <mxPoint x="6" y="14.71" as="offset" />
          </mxGeometry>
        </mxCell>
        <mxCell id="UM5Vl2hP91lMK8gzKFPu-110" value="&lt;span style=&quot;white-space: normal&quot;&gt;sbeo:Panic&lt;/span&gt;" style="ellipse;whiteSpace=wrap;html=1;aspect=fixed;fillColor=#dae8fc;strokeColor=#6c8ebf;shadow=0;" vertex="1" parent="1">
          <mxGeometry x="380" y="-669" width="80" height="80" as="geometry" />
        </mxCell>
        <mxCell id="UM5Vl2hP91lMK8gzKFPu-111" value="sbeo:Fire" style="ellipse;whiteSpace=wrap;html=1;aspect=fixed;fillColor=#dae8fc;strokeColor=#6c8ebf;shadow=0;" vertex="1" parent="1">
          <mxGeometry x="280" y="-629" width="80" height="80" as="geometry" />
        </mxCell>
        <mxCell id="UM5Vl2hP91lMK8gzKFPu-112" value="&lt;span style=&quot;white-space: normal&quot;&gt;sbeo:Earthquake&lt;/span&gt;" style="ellipse;whiteSpace=wrap;html=1;aspect=fixed;fillColor=#dae8fc;strokeColor=#6c8ebf;shadow=0;" vertex="1" parent="1">
          <mxGeometry x="470" y="-749" width="80" height="80" as="geometry" />
        </mxCell>
        <mxCell id="UM5Vl2hP91lMK8gzKFPu-113" value="&lt;span style=&quot;white-space: normal&quot;&gt;sbeo:Congestion&lt;/span&gt;" style="ellipse;whiteSpace=wrap;html=1;aspect=fixed;fillColor=#dae8fc;strokeColor=#6c8ebf;shadow=0;" vertex="1" parent="1">
          <mxGeometry x="180" y="-659" width="80" height="80" as="geometry" />
        </mxCell>
        <mxCell id="UM5Vl2hP91lMK8gzKFPu-114" value="&lt;span style=&quot;white-space: normal&quot;&gt;sbeo:Chemcial&lt;br&gt;Spill&lt;/span&gt;" style="ellipse;whiteSpace=wrap;html=1;aspect=fixed;fillColor=#dae8fc;strokeColor=#6c8ebf;shadow=0;" vertex="1" parent="1">
          <mxGeometry x="130" y="-839" width="80" height="80" as="geometry" />
        </mxCell>
        <mxCell id="UM5Vl2hP91lMK8gzKFPu-115" value="&lt;span style=&quot;white-space: normal&quot;&gt;sbeo:Dependent&lt;/span&gt;" style="ellipse;whiteSpace=wrap;html=1;aspect=fixed;fillColor=#dae8fc;strokeColor=#6c8ebf;shadow=0;" vertex="1" parent="1">
          <mxGeometry x="-460" y="-544" width="80" height="80" as="geometry" />
        </mxCell>
        <mxCell id="UM5Vl2hP91lMK8gzKFPu-116" value="sbeo:Visual&lt;br&gt;Impairment" style="ellipse;whiteSpace=wrap;html=1;aspect=fixed;fillColor=#dae8fc;strokeColor=#6c8ebf;shadow=0;" vertex="1" parent="1">
          <mxGeometry x="-580" y="-454" width="80" height="80" as="geometry" />
        </mxCell>
        <mxCell id="UM5Vl2hP91lMK8gzKFPu-117" value="&lt;span style=&quot;white-space: normal&quot;&gt;sbeo:Hearing&lt;br&gt;Impairment&lt;br&gt;&lt;/span&gt;" style="ellipse;whiteSpace=wrap;html=1;aspect=fixed;fillColor=#dae8fc;strokeColor=#6c8ebf;shadow=0;" vertex="1" parent="1">
          <mxGeometry x="-580" y="-549" width="80" height="80" as="geometry" />
        </mxCell>
        <mxCell id="UM5Vl2hP91lMK8gzKFPu-118" value="&lt;span style=&quot;white-space: normal&quot;&gt;sbeo:Non-Motorised&lt;/span&gt;" style="ellipse;whiteSpace=wrap;html=1;aspect=fixed;fillColor=#dae8fc;strokeColor=#6c8ebf;shadow=0;" vertex="1" parent="1">
          <mxGeometry x="-711" y="-454" width="80" height="80" as="geometry" />
        </mxCell>
        <mxCell id="UM5Vl2hP91lMK8gzKFPu-119" value="&lt;span style=&quot;white-space: normal&quot;&gt;sbeo:Motorised&lt;/span&gt;" style="ellipse;whiteSpace=wrap;html=1;aspect=fixed;fillColor=#dae8fc;strokeColor=#6c8ebf;shadow=0;" vertex="1" parent="1">
          <mxGeometry x="-711" y="-368" width="80" height="80" as="geometry" />
        </mxCell>
        <mxCell id="UM5Vl2hP91lMK8gzKFPu-120" style="edgeStyle=orthogonalEdgeStyle;curved=1;comic=0;orthogonalLoop=1;jettySize=auto;html=1;entryX=0;entryY=0.5;entryDx=0;entryDy=0;shadow=0;startArrow=classic;startFill=1;endArrow=none;endFill=0;dashed=1;exitX=0;exitY=1;exitDx=0;exitDy=0;" edge="1" parent="1" source="UM5Vl2hP91lMK8gzKFPu-124" target="UM5Vl2hP91lMK8gzKFPu-119">
          <mxGeometry relative="1" as="geometry">
            <Array as="points">
              <mxPoint x="-750" y="-521" />
              <mxPoint x="-750" y="-328" />
            </Array>
          </mxGeometry>
        </mxCell>
        <mxCell id="UM5Vl2hP91lMK8gzKFPu-121" value="rdfs:subClassOf" style="text;html=1;align=center;verticalAlign=middle;resizable=0;points=[];labelBackgroundColor=#ffffff;fontColor=#000000;" vertex="1" connectable="0" parent="UM5Vl2hP91lMK8gzKFPu-120">
          <mxGeometry x="0.5818" y="10" relative="1" as="geometry">
            <mxPoint x="-10" y="-25.83" as="offset" />
          </mxGeometry>
        </mxCell>
        <mxCell id="UM5Vl2hP91lMK8gzKFPu-122" style="edgeStyle=orthogonalEdgeStyle;curved=1;comic=0;orthogonalLoop=1;jettySize=auto;html=1;entryX=0.5;entryY=0;entryDx=0;entryDy=0;shadow=0;startArrow=classic;startFill=1;endArrow=none;endFill=0;dashed=1;" edge="1" parent="1" source="UM5Vl2hP91lMK8gzKFPu-124" target="UM5Vl2hP91lMK8gzKFPu-118">
          <mxGeometry relative="1" as="geometry" />
        </mxCell>
        <mxCell id="UM5Vl2hP91lMK8gzKFPu-123" value="rdfs:subClassOf" style="text;html=1;align=center;verticalAlign=middle;resizable=0;points=[];labelBackgroundColor=#ffffff;fontColor=#000000;" vertex="1" connectable="0" parent="UM5Vl2hP91lMK8gzKFPu-122">
          <mxGeometry x="0.5667" y="-9" relative="1" as="geometry">
            <mxPoint x="9" y="-11.67" as="offset" />
          </mxGeometry>
        </mxCell>
        <mxCell id="UM5Vl2hP91lMK8gzKFPu-124" value="&lt;span style=&quot;white-space: normal&quot;&gt;sbeo:Wheel&lt;br&gt;Chair&lt;/span&gt;" style="ellipse;whiteSpace=wrap;html=1;aspect=fixed;fillColor=#dae8fc;strokeColor=#6c8ebf;shadow=0;" vertex="1" parent="1">
          <mxGeometry x="-711" y="-589" width="80" height="80" as="geometry" />
        </mxCell>
        <mxCell id="UM5Vl2hP91lMK8gzKFPu-125" style="edgeStyle=orthogonalEdgeStyle;curved=1;comic=0;orthogonalLoop=1;jettySize=auto;html=1;shadow=0;startArrow=classic;startFill=1;endArrow=none;endFill=0;dashed=1;" edge="1" parent="1" source="UM5Vl2hP91lMK8gzKFPu-129" target="UM5Vl2hP91lMK8gzKFPu-116">
          <mxGeometry relative="1" as="geometry">
            <Array as="points">
              <mxPoint x="-610" y="-639" />
              <mxPoint x="-610" y="-414" />
            </Array>
          </mxGeometry>
        </mxCell>
        <mxCell id="UM5Vl2hP91lMK8gzKFPu-126" value="rdfs:subClassOf" style="text;html=1;align=center;verticalAlign=middle;resizable=0;points=[];labelBackgroundColor=#ffffff;fontColor=#000000;" vertex="1" connectable="0" parent="UM5Vl2hP91lMK8gzKFPu-125">
          <mxGeometry x="-0.4926" y="-10" relative="1" as="geometry">
            <mxPoint x="20" y="131.5" as="offset" />
          </mxGeometry>
        </mxCell>
        <mxCell id="UM5Vl2hP91lMK8gzKFPu-127" style="edgeStyle=orthogonalEdgeStyle;curved=1;comic=0;orthogonalLoop=1;jettySize=auto;html=1;entryX=0.5;entryY=0;entryDx=0;entryDy=0;shadow=0;startArrow=classic;startFill=1;endArrow=none;endFill=0;dashed=1;" edge="1" parent="1" source="UM5Vl2hP91lMK8gzKFPu-129" target="UM5Vl2hP91lMK8gzKFPu-117">
          <mxGeometry relative="1" as="geometry">
            <mxPoint x="-603" y="-673.9999999999998" as="sourcePoint" />
          </mxGeometry>
        </mxCell>
        <mxCell id="UM5Vl2hP91lMK8gzKFPu-128" value="rdfs:subClassOf" style="text;html=1;align=center;verticalAlign=middle;resizable=0;points=[];labelBackgroundColor=#ffffff;fontColor=#000000;" vertex="1" connectable="0" parent="UM5Vl2hP91lMK8gzKFPu-127">
          <mxGeometry x="0.39" y="-3" relative="1" as="geometry">
            <mxPoint x="3" y="-5" as="offset" />
          </mxGeometry>
        </mxCell>
        <mxCell id="UM5Vl2hP91lMK8gzKFPu-129" value="&lt;span style=&quot;white-space: normal&quot;&gt;sbeo:Sensory&lt;br&gt;Impairment&lt;/span&gt;" style="ellipse;whiteSpace=wrap;html=1;aspect=fixed;fillColor=#dae8fc;strokeColor=#6c8ebf;shadow=0;" vertex="1" parent="1">
          <mxGeometry x="-580" y="-679" width="80" height="80" as="geometry" />
        </mxCell>
        <mxCell id="UM5Vl2hP91lMK8gzKFPu-130" style="edgeStyle=orthogonalEdgeStyle;curved=1;comic=0;orthogonalLoop=1;jettySize=auto;html=1;entryX=0;entryY=0.5;entryDx=0;entryDy=0;shadow=0;startArrow=classic;startFill=1;endArrow=none;endFill=0;dashed=1;exitX=0;exitY=0.5;exitDx=0;exitDy=0;" edge="1" parent="1" source="UM5Vl2hP91lMK8gzKFPu-132" target="UM5Vl2hP91lMK8gzKFPu-124">
          <mxGeometry relative="1" as="geometry">
            <Array as="points">
              <mxPoint x="-740" y="-769" />
              <mxPoint x="-740" y="-549" />
            </Array>
          </mxGeometry>
        </mxCell>
        <mxCell id="UM5Vl2hP91lMK8gzKFPu-131" value="rdfs:subClassOf" style="text;html=1;align=center;verticalAlign=middle;resizable=0;points=[];labelBackgroundColor=#ffffff;fontColor=#000000;" vertex="1" connectable="0" parent="UM5Vl2hP91lMK8gzKFPu-130">
          <mxGeometry x="0.2487" y="-1" relative="1" as="geometry">
            <mxPoint x="-9" y="35.29" as="offset" />
          </mxGeometry>
        </mxCell>
        <mxCell id="UM5Vl2hP91lMK8gzKFPu-132" value="&lt;span style=&quot;white-space: normal&quot;&gt;sbeo:Physical&lt;br&gt;Impairment&lt;br&gt;&lt;/span&gt;" style="ellipse;whiteSpace=wrap;html=1;aspect=fixed;fillColor=#dae8fc;strokeColor=#6c8ebf;shadow=0;" vertex="1" parent="1">
          <mxGeometry x="-711" y="-809" width="80" height="80" as="geometry" />
        </mxCell>
        <mxCell id="UM5Vl2hP91lMK8gzKFPu-133" value="sbeo:Visitor" style="ellipse;whiteSpace=wrap;html=1;aspect=fixed;fillColor=#dae8fc;strokeColor=#6c8ebf;shadow=0;" vertex="1" parent="1">
          <mxGeometry x="-460" y="-634" width="80" height="80" as="geometry" />
        </mxCell>
        <mxCell id="UM5Vl2hP91lMK8gzKFPu-134" value="&lt;span style=&quot;white-space: normal&quot;&gt;sbeo:Respnsible&lt;/span&gt;" style="ellipse;whiteSpace=wrap;html=1;aspect=fixed;fillColor=#dae8fc;strokeColor=#6c8ebf;shadow=0;direction=south;" vertex="1" parent="1">
          <mxGeometry x="-460" y="-724" width="80" height="80" as="geometry" />
        </mxCell>
        <mxCell id="UM5Vl2hP91lMK8gzKFPu-135" value="&lt;span style=&quot;white-space: normal&quot;&gt;sbeo:Normal&lt;/span&gt;" style="ellipse;whiteSpace=wrap;html=1;aspect=fixed;fillColor=#dae8fc;strokeColor=#6c8ebf;shadow=0;" vertex="1" parent="1">
          <mxGeometry x="-460" y="-814" width="80" height="80" as="geometry" />
        </mxCell>
        <mxCell id="UM5Vl2hP91lMK8gzKFPu-136" value="&lt;span style=&quot;white-space: normal&quot;&gt;sbeo:Injured&lt;/span&gt;" style="ellipse;whiteSpace=wrap;html=1;aspect=fixed;fillColor=#dae8fc;strokeColor=#6c8ebf;shadow=0;" vertex="1" parent="1">
          <mxGeometry x="-460" y="-454" width="80" height="80" as="geometry" />
        </mxCell>
        <mxCell id="UM5Vl2hP91lMK8gzKFPu-137" style="edgeStyle=orthogonalEdgeStyle;curved=1;comic=0;orthogonalLoop=1;jettySize=auto;html=1;shadow=0;startArrow=classic;startFill=1;endArrow=none;endFill=0;dashed=1;entryX=0.5;entryY=0;entryDx=0;entryDy=0;" edge="1" parent="1" source="UM5Vl2hP91lMK8gzKFPu-141" target="UM5Vl2hP91lMK8gzKFPu-132">
          <mxGeometry relative="1" as="geometry">
            <Array as="points" />
            <mxPoint x="-660" y="-804" as="targetPoint" />
          </mxGeometry>
        </mxCell>
        <mxCell id="UM5Vl2hP91lMK8gzKFPu-138" value="rdfs:subClassOf" style="text;html=1;align=center;verticalAlign=middle;resizable=0;points=[];labelBackgroundColor=#ffffff;fontColor=#000000;" vertex="1" connectable="0" parent="UM5Vl2hP91lMK8gzKFPu-137">
          <mxGeometry x="-0.2167" y="7" relative="1" as="geometry">
            <mxPoint x="-28" y="-10.24" as="offset" />
          </mxGeometry>
        </mxCell>
        <mxCell id="UM5Vl2hP91lMK8gzKFPu-139" style="edgeStyle=orthogonalEdgeStyle;curved=1;comic=0;orthogonalLoop=1;jettySize=auto;html=1;exitX=0.5;exitY=1;exitDx=0;exitDy=0;shadow=0;startArrow=classic;startFill=1;endArrow=none;endFill=0;dashed=1;" edge="1" parent="1" source="UM5Vl2hP91lMK8gzKFPu-141" target="UM5Vl2hP91lMK8gzKFPu-129">
          <mxGeometry relative="1" as="geometry" />
        </mxCell>
        <mxCell id="UM5Vl2hP91lMK8gzKFPu-140" value="rdfs:subClassOf" style="text;html=1;align=center;verticalAlign=middle;resizable=0;points=[];labelBackgroundColor=#ffffff;fontColor=#000000;" vertex="1" connectable="0" parent="UM5Vl2hP91lMK8gzKFPu-139">
          <mxGeometry x="0.3107" y="-1" relative="1" as="geometry">
            <mxPoint as="offset" />
          </mxGeometry>
        </mxCell>
        <mxCell id="UM5Vl2hP91lMK8gzKFPu-141" value="&lt;span style=&quot;white-space: normal&quot;&gt;sbeo:Impaired&lt;/span&gt;" style="ellipse;whiteSpace=wrap;html=1;aspect=fixed;fillColor=#dae8fc;strokeColor=#6c8ebf;shadow=0;" vertex="1" parent="1">
          <mxGeometry x="-580" y="-809" width="80" height="80" as="geometry" />
        </mxCell>
        <mxCell id="UM5Vl2hP91lMK8gzKFPu-142" value="&lt;span style=&quot;white-space: normal&quot;&gt;sbeo:Family&lt;/span&gt;" style="ellipse;whiteSpace=wrap;html=1;aspect=fixed;fillColor=#dae8fc;strokeColor=#6c8ebf;shadow=0;" vertex="1" parent="1">
          <mxGeometry x="-460" y="-364" width="80" height="80" as="geometry" />
        </mxCell>
        <mxCell id="UM5Vl2hP91lMK8gzKFPu-143" value="&lt;span style=&quot;white-space: normal&quot;&gt;sbeo:UnAvailable&lt;/span&gt;" style="ellipse;whiteSpace=wrap;html=1;aspect=fixed;fillColor=#dae8fc;strokeColor=#6c8ebf;shadow=0;" vertex="1" parent="1">
          <mxGeometry x="1050" y="-629" width="80" height="80" as="geometry" />
        </mxCell>
        <mxCell id="UM5Vl2hP91lMK8gzKFPu-144" value="&lt;span style=&quot;white-space: normal&quot;&gt;sbeo:Emergency&lt;br&gt;Exit&lt;/span&gt;" style="ellipse;whiteSpace=wrap;html=1;aspect=fixed;fillColor=#dae8fc;strokeColor=#6c8ebf;shadow=0;" vertex="1" parent="1">
          <mxGeometry x="720" y="-619" width="80" height="80" as="geometry" />
        </mxCell>
        <mxCell id="UM5Vl2hP91lMK8gzKFPu-145" style="edgeStyle=orthogonalEdgeStyle;curved=1;comic=0;orthogonalLoop=1;jettySize=auto;html=1;entryX=0.5;entryY=0;entryDx=0;entryDy=0;shadow=0;startArrow=classic;startFill=1;endArrow=none;endFill=0;dashed=1;exitX=0;exitY=0.5;exitDx=0;exitDy=0;" edge="1" parent="1" source="UM5Vl2hP91lMK8gzKFPu-147" target="UM5Vl2hP91lMK8gzKFPu-144">
          <mxGeometry relative="1" as="geometry" />
        </mxCell>
        <mxCell id="UM5Vl2hP91lMK8gzKFPu-146" value="rdfs:subClassOf" style="text;html=1;align=center;verticalAlign=middle;resizable=0;points=[];labelBackgroundColor=#ffffff;fontColor=#000000;" vertex="1" connectable="0" parent="UM5Vl2hP91lMK8gzKFPu-145">
          <mxGeometry x="-0.1088" y="5" relative="1" as="geometry">
            <mxPoint x="-5" y="30.83" as="offset" />
          </mxGeometry>
        </mxCell>
        <mxCell id="UM5Vl2hP91lMK8gzKFPu-147" value="&lt;span style=&quot;white-space: normal&quot;&gt;sbeo:Exit&lt;/span&gt;" style="ellipse;whiteSpace=wrap;html=1;aspect=fixed;fillColor=#dae8fc;strokeColor=#6c8ebf;shadow=0;" vertex="1" parent="1">
          <mxGeometry x="790" y="-739" width="80" height="80" as="geometry" />
        </mxCell>
        <mxCell id="UM5Vl2hP91lMK8gzKFPu-148" value="&lt;span style=&quot;white-space: normal&quot;&gt;sbeo:Entrance&lt;/span&gt;" style="ellipse;whiteSpace=wrap;html=1;aspect=fixed;fillColor=#dae8fc;strokeColor=#6c8ebf;shadow=0;" vertex="1" parent="1">
          <mxGeometry x="950" y="-629" width="80" height="80" as="geometry" />
        </mxCell>
        <mxCell id="UM5Vl2hP91lMK8gzKFPu-149" value="&lt;span style=&quot;white-space: normal&quot;&gt;sbeo:Waiting&lt;br&gt;Zone&lt;/span&gt;" style="ellipse;whiteSpace=wrap;html=1;aspect=fixed;fillColor=#dae8fc;strokeColor=#6c8ebf;shadow=0;" vertex="1" parent="1">
          <mxGeometry x="810" y="-429" width="80" height="80" as="geometry" />
        </mxCell>
        <mxCell id="UM5Vl2hP91lMK8gzKFPu-150" value="&lt;span style=&quot;white-space: normal&quot;&gt;sbeo:Assembly&lt;br&gt;Point&lt;br&gt;&lt;/span&gt;" style="ellipse;whiteSpace=wrap;html=1;aspect=fixed;fillColor=#dae8fc;strokeColor=#6c8ebf;shadow=0;" vertex="1" parent="1">
          <mxGeometry x="920" y="-429" width="80" height="80" as="geometry" />
        </mxCell>
        <mxCell id="UM5Vl2hP91lMK8gzKFPu-151" style="edgeStyle=orthogonalEdgeStyle;curved=1;comic=0;orthogonalLoop=1;jettySize=auto;html=1;entryX=0.5;entryY=0;entryDx=0;entryDy=0;shadow=0;startArrow=classic;startFill=1;endArrow=none;endFill=0;dashed=1;" edge="1" parent="1" source="UM5Vl2hP91lMK8gzKFPu-155" target="UM5Vl2hP91lMK8gzKFPu-150">
          <mxGeometry relative="1" as="geometry" />
        </mxCell>
        <mxCell id="UM5Vl2hP91lMK8gzKFPu-152" value="rdfs:subClassOf" style="text;html=1;align=center;verticalAlign=middle;resizable=0;points=[];labelBackgroundColor=#ffffff;fontColor=#000000;" vertex="1" connectable="0" parent="UM5Vl2hP91lMK8gzKFPu-151">
          <mxGeometry x="-0.2818" y="2" relative="1" as="geometry">
            <mxPoint x="13.1" y="22" as="offset" />
          </mxGeometry>
        </mxCell>
        <mxCell id="UM5Vl2hP91lMK8gzKFPu-153" style="edgeStyle=orthogonalEdgeStyle;curved=1;comic=0;orthogonalLoop=1;jettySize=auto;html=1;entryX=0;entryY=0.5;entryDx=0;entryDy=0;shadow=0;startArrow=classic;startFill=1;endArrow=none;endFill=0;dashed=1;exitX=0;exitY=0.5;exitDx=0;exitDy=0;" edge="1" parent="1" source="UM5Vl2hP91lMK8gzKFPu-155" target="UM5Vl2hP91lMK8gzKFPu-149">
          <mxGeometry relative="1" as="geometry">
            <Array as="points">
              <mxPoint x="770" y="-489" />
              <mxPoint x="770" y="-389" />
            </Array>
          </mxGeometry>
        </mxCell>
        <mxCell id="UM5Vl2hP91lMK8gzKFPu-154" value="rdfs:subClassOf" style="text;html=1;align=center;verticalAlign=middle;resizable=0;points=[];labelBackgroundColor=#ffffff;fontColor=#000000;" vertex="1" connectable="0" parent="UM5Vl2hP91lMK8gzKFPu-153">
          <mxGeometry x="0.28" y="-3" relative="1" as="geometry">
            <mxPoint x="3" y="-25.24" as="offset" />
          </mxGeometry>
        </mxCell>
        <mxCell id="UM5Vl2hP91lMK8gzKFPu-155" value="sbeo:SafeZone" style="ellipse;whiteSpace=wrap;html=1;aspect=fixed;fillColor=#dae8fc;strokeColor=#6c8ebf;shadow=0;" vertex="1" parent="1">
          <mxGeometry x="810" y="-529" width="80" height="80" as="geometry" />
        </mxCell>
        <mxCell id="UM5Vl2hP91lMK8gzKFPu-156" style="edgeStyle=orthogonalEdgeStyle;curved=1;comic=0;orthogonalLoop=1;jettySize=auto;html=1;entryX=0.5;entryY=0;entryDx=0;entryDy=0;shadow=0;startArrow=classic;startFill=1;endArrow=none;endFill=0;dashed=1;exitX=0;exitY=0.5;exitDx=0;exitDy=0;" edge="1" parent="1" source="UM5Vl2hP91lMK8gzKFPu-158" target="UM5Vl2hP91lMK8gzKFPu-155">
          <mxGeometry relative="1" as="geometry" />
        </mxCell>
        <mxCell id="UM5Vl2hP91lMK8gzKFPu-157" value="rdfs:subClassOf" style="text;html=1;align=center;verticalAlign=middle;resizable=0;points=[];labelBackgroundColor=#ffffff;fontColor=#000000;" vertex="1" connectable="0" parent="UM5Vl2hP91lMK8gzKFPu-156">
          <mxGeometry x="0.2266" y="4" relative="1" as="geometry">
            <mxPoint y="-15" as="offset" />
          </mxGeometry>
        </mxCell>
        <mxCell id="UM5Vl2hP91lMK8gzKFPu-158" value="sbeo:Available" style="ellipse;whiteSpace=wrap;html=1;aspect=fixed;fillColor=#dae8fc;strokeColor=#6c8ebf;shadow=0;" vertex="1" parent="1">
          <mxGeometry x="850" y="-629" width="80" height="80" as="geometry" />
        </mxCell>
        <mxCell id="UM5Vl2hP91lMK8gzKFPu-159" value="&lt;span style=&quot;white-space: normal&quot;&gt;sbeo:Low&lt;br&gt;Stamina&lt;/span&gt;" style="ellipse;whiteSpace=wrap;html=1;aspect=fixed;fillColor=#dae8fc;strokeColor=#6c8ebf;shadow=0;" vertex="1" parent="1">
          <mxGeometry x="-711" y="-679" width="80" height="80" as="geometry" />
        </mxCell>
        <mxCell id="UM5Vl2hP91lMK8gzKFPu-160" style="edgeStyle=orthogonalEdgeStyle;curved=1;comic=0;orthogonalLoop=1;jettySize=auto;html=1;entryX=0.5;entryY=0;entryDx=0;entryDy=0;shadow=0;startArrow=classic;startFill=1;endArrow=none;endFill=0;dashed=1;" edge="1" parent="1" source="UM5Vl2hP91lMK8gzKFPu-132" target="UM5Vl2hP91lMK8gzKFPu-159">
          <mxGeometry relative="1" as="geometry">
            <mxPoint x="-710" y="-763.9999999999998" as="sourcePoint" />
            <mxPoint x="-953" y="-654" as="targetPoint" />
          </mxGeometry>
        </mxCell>
        <mxCell id="UM5Vl2hP91lMK8gzKFPu-161" value="rdfs:subClassOf" style="text;html=1;align=center;verticalAlign=middle;resizable=0;points=[];labelBackgroundColor=#ffffff;fontColor=#000000;" vertex="1" connectable="0" parent="UM5Vl2hP91lMK8gzKFPu-160">
          <mxGeometry x="0.2487" y="-1" relative="1" as="geometry">
            <mxPoint x="-21.67" y="6" as="offset" />
          </mxGeometry>
        </mxCell>
        <mxCell id="UM5Vl2hP91lMK8gzKFPu-162" value="SBEO: Smart Building Evacuation Ontology&lt;br&gt;&lt;span style=&quot;font-weight: normal&quot;&gt;Class Diagram&lt;/span&gt;&lt;br&gt;&amp;nbsp;" style="text;strokeColor=none;fillColor=none;html=1;fontSize=24;fontStyle=1;verticalAlign=middle;align=center;" vertex="1" parent="1">
          <mxGeometry x="117" y="-1100" width="100" height="40" as="geometry" />
        </mxCell>
        <mxCell id="UM5Vl2hP91lMK8gzKFPu-163" value="" style="shape=ext;double=1;whiteSpace=wrap;html=1;align=center;" vertex="1" parent="1">
          <mxGeometry x="-700" y="-1079" width="220" height="120" as="geometry" />
        </mxCell>
        <mxCell id="UM5Vl2hP91lMK8gzKFPu-164" value="" style="ellipse;whiteSpace=wrap;html=1;aspect=fixed;fillColor=#dae8fc;strokeColor=#6c8ebf;" vertex="1" parent="1">
          <mxGeometry x="-680" y="-1063.5" width="40" height="40" as="geometry" />
        </mxCell>
        <mxCell id="UM5Vl2hP91lMK8gzKFPu-165" value="" style="ellipse;whiteSpace=wrap;html=1;aspect=fixed;fillColor=#1ba1e2;strokeColor=#006EAF;fontColor=#ffffff;" vertex="1" parent="1">
          <mxGeometry x="-680" y="-1018.5" width="40" height="40" as="geometry" />
        </mxCell>
        <mxCell id="UM5Vl2hP91lMK8gzKFPu-166" value="Class" style="text;html=1;align=center;verticalAlign=middle;resizable=0;points=[];autosize=1;labelPosition=center;verticalLabelPosition=middle;" vertex="1" parent="1">
          <mxGeometry x="-583" y="-1060.5" width="50" height="20" as="geometry" />
        </mxCell>
        <mxCell id="UM5Vl2hP91lMK8gzKFPu-167" value="External class,&lt;br&gt;reused/imported&lt;br&gt;from other ontologies" style="text;html=1;align=center;verticalAlign=middle;resizable=0;points=[];autosize=1;labelPosition=center;verticalLabelPosition=middle;" vertex="1" parent="1">
          <mxGeometry x="-620" y="-1028.5" width="130" height="50" as="geometry" />
        </mxCell>
      </root>
    </mxGraphModel>
  </diagram>
</mxfile>
